<?xml version="1.0" standalone="no"?>
<!DOCTYPE svg PUBLIC "-//W3C//DTD SVG 20010904//EN"
 "http://www.w3.org/TR/2001/REC-SVG-20010904/DTD/svg10.dtd">
<svg version="1.0" xmlns="http://www.w3.org/2000/svg"
 width="1600.000000pt" height="1600.000000pt" viewBox="0 0 1600.000000 1600.000000"
 preserveAspectRatio="xMidYMid meet">
<metadata>
Created by potrace 1.14, written by Peter Selinger 2001-2017
</metadata>
<g transform="translate(0.000000,1600.000000) scale(0.100000,-0.100000)"
fill="#000000" stroke="none">
<path d="M4781 13923 c-1 -6 -13 -12 -28 -13 -89 -3 -113 -6 -113 -11 0 -4
-15 -3 -34 1 -19 4 -38 4 -43 -1 -4 -4 -20 -9 -35 -11 -15 -2 -31 -8 -35 -13
-5 -4 -1 -5 7 0 8 5 12 4 7 0 -4 -5 -25 -8 -47 -8 -23 0 -40 -4 -40 -11 0 -6
-5 -4 -10 4 -6 10 -10 11 -10 3 0 -7 -9 -13 -20 -13 -11 0 -20 -4 -20 -9 0 -6
-10 -8 -22 -6 -12 3 -26 -1 -30 -8 -6 -9 -8 -9 -8 1 0 7 -8 4 -20 -8 -11 -11
-26 -17 -34 -14 -8 3 -17 0 -21 -5 -3 -6 -11 -9 -16 -6 -5 4 -9 1 -9 -5 0 -6
-4 -8 -10 -5 -5 3 -10 2 -10 -2 0 -5 -10 -9 -22 -10 -11 -1 -25 -8 -29 -14 -4
-7 -18 -14 -31 -16 -13 -2 -25 -8 -26 -13 -2 -6 -8 -8 -13 -4 -5 3 -9 0 -9 -5
0 -6 -8 -11 -18 -11 -10 0 -24 -9 -31 -19 -8 -11 -20 -17 -26 -14 -7 2 -25 -7
-41 -22 -15 -14 -33 -24 -40 -21 -7 3 -16 -4 -19 -15 -4 -10 -11 -19 -16 -19
-6 0 -7 6 -3 13 4 7 3 9 -2 4 -5 -5 -9 -14 -9 -20 0 -6 -11 -14 -25 -18 -14
-4 -21 -7 -17 -8 4 -1 2 -7 -5 -15 -7 -7 -19 -11 -27 -8 -8 3 -12 1 -9 -4 6
-9 -14 -33 -29 -35 -21 -3 -32 -12 -27 -21 3 -5 -3 -12 -15 -15 -11 -3 -18 -9
-15 -14 3 -5 0 -9 -6 -9 -6 0 -8 -5 -5 -10 4 -6 3 -10 -2 -9 -17 3 -36 -1 -30
-7 7 -7 -29 -44 -44 -44 -5 0 -8 -3 -6 -7 6 -10 -19 -34 -27 -26 -3 4 -6 -1
-6 -11 0 -9 -4 -14 -10 -11 -5 3 -10 -1 -10 -10 0 -8 -7 -18 -16 -22 -8 -3
-20 -17 -25 -30 -5 -13 -13 -22 -18 -18 -5 3 -12 -3 -16 -14 -3 -11 -13 -22
-22 -25 -12 -5 -13 -9 -3 -21 10 -12 10 -15 -2 -15 -16 0 -49 -36 -41 -44 3
-3 -2 -8 -11 -12 -9 -3 -13 -10 -10 -15 3 -5 0 -9 -6 -9 -6 0 -9 -4 -6 -9 3
-5 -1 -12 -10 -15 -8 -3 -13 -10 -9 -16 3 -5 -4 -19 -15 -30 -12 -12 -22 -30
-23 -41 -1 -10 -5 -19 -9 -19 -4 0 -8 -6 -8 -14 0 -8 -6 -21 -12 -28 -7 -7
-15 -22 -16 -33 -2 -11 -8 -23 -14 -26 -5 -3 -9 -9 -9 -13 3 -20 0 -26 -11
-20 -8 5 -9 2 -5 -9 3 -10 2 -17 -3 -17 -5 0 -7 -6 -4 -13 3 -8 -2 -20 -11
-27 -8 -7 -15 -18 -15 -24 0 -6 5 -4 10 4 7 10 10 11 10 2 0 -7 -6 -15 -14
-18 -7 -3 -13 -17 -12 -32 1 -15 -5 -33 -11 -40 -7 -7 -13 -22 -13 -33 0 -10
-4 -19 -10 -19 -6 0 -6 -9 0 -24 5 -14 5 -26 0 -28 -8 -3 -20 -43 -22 -75 -1
-7 -4 -13 -7 -13 -3 0 -5 -25 -4 -56 2 -31 -1 -53 -6 -50 -10 7 -9 -20 1 -30
8 -8 -2 -35 -11 -30 -8 5 -5 -199 3 -213 4 -6 3 -11 -2 -11 -10 0 -9 -26 2
-52 4 -9 5 -22 1 -28 -3 -5 -1 -10 6 -10 8 0 8 -4 -1 -15 -9 -10 -9 -15 -1
-15 7 0 11 -22 11 -58 0 -33 5 -64 13 -71 7 -9 8 -12 0 -7 -8 4 -8 0 0 -18 7
-13 15 -22 19 -20 5 3 4 -6 -2 -20 -5 -14 -6 -26 -1 -26 8 0 10 -8 13 -55 1
-14 8 -25 15 -25 9 0 12 -9 8 -29 -3 -20 0 -31 10 -35 8 -3 12 -12 9 -21 -3
-8 -1 -15 6 -15 6 0 9 -4 5 -9 -3 -5 1 -15 8 -23 8 -7 12 -19 9 -26 -2 -6 1
-12 8 -12 6 0 8 -4 5 -10 -3 -5 -2 -10 4 -10 6 0 8 -7 5 -15 -4 -8 1 -17 10
-21 13 -5 14 -9 5 -20 -9 -11 -8 -14 4 -14 11 0 14 -6 10 -17 -3 -10 -3 -15 1
-11 5 4 14 1 21 -5 10 -9 10 -15 1 -26 -8 -12 -8 -13 2 -7 8 5 12 0 12 -13 0
-12 5 -21 11 -21 5 0 7 -4 4 -10 -3 -5 -1 -10 5 -10 6 0 8 -4 5 -10 -3 -5 -1
-10 4 -10 6 0 11 -7 11 -15 0 -8 5 -15 11 -15 6 0 9 -7 5 -15 -3 -8 -1 -15 5
-15 6 0 7 -4 4 -10 -3 -5 -1 -10 5 -10 6 0 9 -4 6 -9 -3 -5 1 -11 9 -15 8 -3
15 -12 15 -21 0 -8 6 -15 13 -15 9 0 9 -2 0 -8 -9 -6 -7 -12 7 -22 11 -8 20
-25 20 -37 0 -13 5 -23 10 -23 6 0 10 -9 10 -20 0 -11 6 -23 14 -26 9 -3 12
-12 9 -21 -4 -11 -3 -14 6 -9 8 6 11 2 9 -10 -2 -10 2 -19 7 -19 6 0 15 -3 21
-7 6 -4 16 1 23 11 9 12 21 16 34 13 16 -4 19 -2 14 11 -3 9 -3 16 1 15 13 -4
82 23 88 34 5 7 2 8 -6 3 -9 -5 -11 -4 -6 4 6 9 11 9 22 0 13 -11 18 -5 16 21
0 3 11 6 26 7 14 0 31 8 37 17 7 9 15 13 19 9 4 -4 11 -1 16 7 7 11 10 12 10
2 0 -7 5 -10 10 -7 6 4 7 11 4 17 -5 7 1 9 15 5 18 -4 21 -2 16 11 -3 9 -3 13
1 9 4 -4 14 -1 22 6 13 10 15 9 8 -3 -4 -8 -1 -7 8 4 8 10 19 15 25 11 6 -3
11 -1 11 5 0 7 6 10 14 7 8 -3 16 -2 18 3 2 5 12 7 24 4 20 -5 20 -10 20 -304
-1 -272 -3 -301 -19 -320 -10 -12 -22 -18 -27 -15 -6 3 -10 -1 -10 -10 0 -11
-5 -15 -15 -11 -8 3 -15 1 -15 -4 0 -5 -7 -6 -17 -3 -11 4 -14 3 -9 -5 4 -7
-3 -14 -18 -18 -13 -3 -27 -12 -30 -20 -3 -8 -17 -14 -31 -14 -15 0 -24 -4
-20 -10 3 -5 1 -11 -4 -11 -6 -1 -16 -2 -22 -3 -6 0 -17 -9 -24 -19 -10 -13
-14 -15 -18 -5 -3 8 -6 6 -6 -5 -1 -10 -5 -15 -11 -12 -13 8 -52 -19 -42 -30
4 -4 -1 -5 -11 -2 -11 4 -25 -1 -38 -14 -11 -11 -23 -18 -27 -15 -10 6 -32
-20 -24 -28 3 -4 -1 -4 -11 0 -10 3 -17 1 -17 -5 0 -6 -5 -11 -11 -11 -5 0 -7
6 -4 13 4 6 -3 1 -14 -11 -11 -13 -29 -25 -38 -27 -10 -1 -17 -8 -15 -15 1 -6
-2 -9 -8 -5 -5 3 -10 1 -10 -6 0 -9 -3 -9 -14 0 -11 9 -16 9 -22 0 -5 -8 -3
-10 7 -5 8 4 3 -1 -11 -12 -13 -11 -27 -19 -31 -17 -3 3 -15 -3 -25 -11 -10
-9 -13 -12 -5 -8 9 5 12 3 7 -5 -4 -6 -11 -9 -16 -6 -16 10 -61 -18 -55 -33 4
-12 3 -13 -10 -2 -12 10 -15 10 -15 -3 0 -10 -6 -14 -15 -11 -8 4 -15 1 -15
-6 0 -6 -4 -9 -9 -6 -5 3 -11 -1 -15 -9 -3 -8 -13 -15 -21 -15 -9 0 -14 -4
-11 -9 3 -4 -6 -7 -19 -5 -14 1 -23 -1 -20 -5 4 -7 -39 -34 -58 -35 -4 -1 -11
-5 -15 -11 -4 -5 -14 -11 -22 -13 -8 -2 -22 -10 -31 -18 -8 -8 -19 -14 -23
-14 -4 0 -16 -10 -27 -22 -10 -13 -18 -17 -19 -10 0 20 -18 14 -25 -9 -6 -17
-9 -19 -16 -8 -6 10 -9 11 -9 2 0 -7 -7 -13 -15 -13 -8 0 -15 -5 -15 -11 0 -5
-4 -7 -10 -4 -5 3 -10 -1 -10 -9 0 -10 -7 -13 -20 -11 -13 3 -18 0 -14 -7 5
-7 1 -9 -9 -5 -12 4 -17 1 -17 -9 0 -9 -6 -14 -13 -11 -14 5 -39 -18 -29 -27
3 -4 -2 -4 -12 0 -13 5 -17 4 -12 -4 4 -7 2 -10 -7 -6 -8 3 -20 -2 -27 -10 -7
-9 -16 -13 -21 -10 -5 3 -9 0 -9 -6 0 -6 -5 -8 -10 -5 -6 3 -13 -1 -16 -9 -3
-9 -14 -16 -23 -16 -22 -1 -52 -25 -43 -35 4 -5 -1 -5 -11 -2 -11 4 -25 -1
-38 -14 -11 -11 -23 -18 -27 -15 -10 6 -32 -20 -24 -28 3 -4 -1 -4 -11 0 -9 3
-17 1 -17 -4 0 -6 -9 -9 -21 -7 -15 3 -19 0 -15 -10 3 -8 2 -14 -2 -14 -20 3
-33 -2 -27 -11 3 -6 -1 -7 -9 -4 -9 3 -16 1 -16 -6 0 -6 -4 -8 -10 -5 -5 3
-10 1 -10 -6 0 -7 -3 -9 -7 -6 -3 4 -12 -2 -20 -12 -8 -12 -22 -18 -33 -16
-11 2 -18 0 -15 -6 6 -8 -9 -13 -29 -10 -5 1 -5 -6 -2 -16 6 -14 4 -15 -5 -6
-9 9 -15 8 -26 -3 -8 -8 -19 -11 -25 -8 -6 4 -9 3 -6 -2 3 -5 -5 -17 -18 -27
-23 -17 -23 -17 -17 0 5 16 4 16 -8 2 -21 -24 -75 -59 -82 -53 -3 3 -10 -4
-17 -15 -6 -12 -15 -19 -21 -16 -5 4 -9 1 -9 -5 0 -6 -5 -8 -10 -5 -5 3 -10 1
-10 -4 0 -6 -7 -11 -16 -11 -8 0 -12 -4 -9 -10 3 -5 -1 -10 -9 -10 -9 0 -16
-5 -16 -11 0 -5 -5 -7 -10 -4 -6 4 -9 3 -8 -2 2 -5 -12 -23 -30 -40 -17 -18
-32 -36 -32 -42 0 -5 -7 -12 -16 -15 -8 -3 -12 -10 -9 -16 3 -5 -1 -10 -9 -10
-10 0 -13 -6 -10 -15 4 -10 0 -15 -12 -15 -16 0 -17 -2 -4 -10 10 -6 11 -10 3
-10 -7 0 -13 -6 -13 -14 0 -8 -7 -17 -16 -20 -9 -4 -14 -13 -10 -21 3 -8 1
-15 -5 -15 -6 0 -7 -4 -4 -10 3 -5 1 -10 -5 -10 -7 0 -9 -7 -6 -16 3 -8 2 -12
-4 -9 -6 3 -10 -2 -10 -13 0 -10 -3 -22 -7 -25 -3 -4 -8 -17 -9 -29 -6 -39 -9
-53 -17 -65 -14 -22 -11 -241 3 -258 9 -11 9 -15 1 -15 -8 0 -6 -6 4 -17 10
-10 15 -27 13 -44 -3 -15 -1 -26 4 -23 4 3 8 -2 8 -10 0 -9 4 -16 10 -16 5 0
9 -3 8 -7 -3 -16 14 -63 27 -73 8 -6 11 -19 8 -27 -4 -11 -2 -14 5 -9 7 4 12
1 12 -8 0 -9 4 -16 8 -16 4 0 13 -13 19 -30 6 -16 18 -30 27 -30 9 0 16 -7 16
-15 0 -8 5 -15 10 -15 6 0 10 -8 10 -17 0 -15 2 -16 10 -3 7 11 10 12 10 2 0
-17 26 -43 34 -35 3 4 6 1 6 -5 0 -20 47 -64 53 -50 4 9 6 8 6 -3 1 -8 17 -21
36 -29 19 -7 32 -17 30 -21 -6 -9 24 -21 36 -13 5 3 9 0 9 -5 0 -6 7 -11 15
-11 8 0 15 -4 15 -9 0 -5 8 -8 18 -6 9 1 26 -5 36 -14 11 -9 16 -10 12 -3 -7
11 -4 11 13 0 12 -7 21 -17 21 -22 0 -4 7 -3 15 4 9 8 15 8 15 2 0 -7 10 -8
30 -2 17 5 28 5 25 0 -3 -4 9 -10 25 -12 17 -3 30 -1 30 2 0 4 18 4 40 0 22
-4 40 -5 40 -1 0 3 15 6 33 7 65 2 131 15 139 27 6 9 8 8 8 -2 0 -11 4 -9 15
5 11 14 14 15 15 4 0 -13 1 -13 10 0 5 8 14 16 20 16 5 1 15 2 21 3 5 0 7 6 3
13 -5 8 -2 9 9 5 10 -3 17 -3 17 2 0 5 8 8 18 7 9 0 16 5 15 11 -2 7 0 13 5
12 14 -2 52 13 48 20 -3 4 4 8 15 8 23 2 51 28 41 38 -4 5 -1 5 6 1 7 -4 20
-2 29 6 14 11 16 11 8 -1 -6 -10 -4 -12 4 -7 7 5 10 13 8 20 -4 9 23 12 64 7
8 -1 5 -33 -5 -49 -4 -6 -4 -12 1 -12 4 0 8 -23 8 -50 0 -28 -3 -50 -8 -50 -4
0 -3 -8 2 -18 7 -13 6 -23 -1 -30 -8 -8 -8 -12 -2 -12 13 0 12 -63 -1 -72 -7
-5 -6 -8 1 -8 11 0 10 -62 -1 -80 -3 -6 -2 -10 3 -10 8 0 9 -44 2 -75 -1 -5
-1 -12 0 -15 7 -17 3 -90 -5 -90 -6 0 -6 -3 0 -8 14 -9 13 -65 0 -74 -6 -5 -5
-8 2 -8 15 0 13 -21 -2 -32 -7 -5 -7 -8 0 -8 12 0 12 -111 0 -130 -6 -9 -4
-11 6 -5 12 8 12 6 0 -8 -7 -9 -9 -17 -4 -17 13 0 11 -63 -2 -72 -7 -5 -6 -8
1 -8 11 0 10 -62 -1 -80 -3 -6 -2 -10 3 -10 8 0 9 -44 2 -75 -1 -5 -1 -12 0
-15 7 -17 3 -90 -5 -90 -6 0 -6 -3 0 -8 14 -9 13 -65 0 -74 -6 -5 -5 -8 3 -8
14 0 12 -21 -3 -32 -7 -5 -7 -8 0 -8 12 0 12 -111 0 -130 -6 -9 -4 -11 6 -5
12 8 12 6 0 -8 -7 -9 -9 -17 -4 -17 13 0 11 -63 -2 -72 -7 -5 -6 -8 1 -8 11 0
10 -62 -1 -80 -3 -6 -2 -10 3 -10 8 0 9 -44 2 -75 -1 -5 -1 -12 0 -15 7 -17 3
-90 -5 -90 -6 0 -6 -3 0 -8 14 -9 13 -65 0 -74 -6 -5 -5 -8 3 -8 14 0 12 -21
-3 -32 -7 -5 -7 -8 0 -8 12 0 12 -111 0 -130 -6 -9 -4 -11 6 -5 12 8 12 6 0
-8 -7 -9 -9 -17 -4 -17 13 0 11 -63 -2 -72 -7 -5 -6 -8 1 -8 11 0 10 -62 -1
-80 -3 -6 -2 -10 3 -10 8 0 9 -44 2 -75 -1 -5 -1 -14 0 -20 6 -25 4 -41 -5
-47 -7 -5 -7 -8 0 -8 12 0 12 -111 0 -130 -6 -9 -4 -11 6 -5 12 8 12 6 0 -8
-7 -9 -9 -17 -4 -17 13 0 11 -63 -2 -72 -7 -5 -6 -8 1 -8 11 0 11 -51 -1 -69
-3 -6 -3 -11 2 -11 9 0 10 -76 1 -86 -4 -3 -3 -16 2 -29 5 -14 5 -26 -3 -34
-7 -7 -7 -11 -1 -11 13 0 12 -63 -1 -72 -7 -5 -7 -8 0 -8 8 0 9 -30 4 -135 0
-5 2 -22 4 -38 2 -15 0 -30 -5 -33 -5 -3 -5 -11 0 -17 4 -7 7 -23 5 -37 -5
-35 -5 -41 0 -73 2 -15 1 -30 -4 -32 -4 -3 -4 -19 1 -35 6 -21 5 -30 -3 -30
-8 0 -8 -3 -2 -8 14 -9 13 -65 0 -74 -6 -5 -5 -8 3 -8 14 0 12 -21 -3 -32 -7
-5 -7 -8 0 -8 12 0 12 -111 0 -130 -6 -9 -4 -11 6 -5 12 8 12 6 0 -8 -7 -9 -9
-17 -4 -17 13 0 11 -63 -2 -72 -7 -5 -6 -8 1 -8 11 0 10 -62 -1 -80 -3 -6 -2
-10 3 -10 10 0 8 -62 -2 -78 -3 -6 -3 -13 2 -16 5 -3 7 -27 5 -53 -5 -67 -5
-65 0 -96 2 -15 0 -30 -5 -33 -5 -3 -5 -11 0 -17 4 -7 7 -23 5 -37 -4 -31 -4
-39 0 -70 2 -14 -2 -31 -7 -39 -9 -12 -8 -13 4 -6 13 8 13 7 1 -8 -7 -9 -10
-17 -5 -17 11 0 10 -112 -1 -130 -6 -9 -4 -11 6 -5 12 8 12 6 0 -8 -7 -9 -9
-17 -4 -17 13 0 11 -63 -2 -72 -7 -5 -6 -8 1 -8 11 0 11 -51 -1 -69 -3 -6 -3
-11 2 -11 9 0 10 -76 1 -86 -4 -3 -3 -16 2 -29 5 -14 5 -26 -3 -34 -7 -7 -7
-11 -1 -11 13 0 12 -63 -1 -72 -7 -5 -6 -8 1 -8 11 0 11 -51 -1 -69 -3 -6 -3
-11 2 -11 10 0 9 -113 -2 -130 -6 -9 -4 -11 6 -5 12 8 12 6 0 -8 -7 -9 -9 -17
-4 -17 13 0 11 -63 -2 -72 -7 -5 -6 -8 1 -8 6 0 9 -15 6 -37 -5 -50 -5 -53 6
-93 5 -20 7 -46 5 -59 -2 -13 1 -29 7 -36 5 -6 7 -15 3 -19 -4 -3 2 -13 13
-22 10 -8 12 -12 4 -8 -13 7 -13 5 -1 -9 7 -9 10 -17 6 -17 -4 0 -2 -6 4 -13
6 -8 8 -17 4 -20 -3 -4 -1 -7 6 -7 7 0 9 -4 6 -10 -3 -5 1 -10 11 -10 12 0 14
-3 5 -13 -8 -10 -6 -19 9 -35 11 -12 20 -26 20 -31 0 -6 7 -14 16 -19 9 -5 17
-13 17 -18 1 -5 6 -8 10 -6 5 1 6 -2 2 -8 -3 -5 0 -10 7 -10 9 0 9 -3 -2 -10
-13 -8 -12 -10 4 -10 12 0 16 -5 12 -15 -5 -14 6 -20 29 -15 6 1 7 -2 3 -6
-10 -9 11 -36 23 -29 4 3 6 -4 4 -15 -2 -11 0 -20 6 -20 21 0 24 -2 31 -21 4
-10 15 -19 23 -19 9 0 14 -4 11 -9 -3 -5 8 -14 24 -21 16 -7 27 -16 24 -21 -5
-8 9 -13 29 -10 4 0 7 -4 7 -11 0 -6 3 -9 6 -5 4 3 13 -1 21 -9 8 -8 19 -12
24 -9 5 4 9 1 9 -5 0 -6 5 -8 10 -5 6 4 10 3 9 -2 -4 -24 1 -37 12 -26 12 12
69 -11 69 -29 0 -7 5 -7 14 1 10 9 16 8 26 -4 7 -9 18 -14 24 -12 6 2 17 -3
25 -10 10 -11 16 -11 21 -3 5 9 9 9 14 1 5 -8 13 -8 29 0 16 9 22 9 25 0 2 -6
8 -9 13 -5 5 3 9 1 9 -3 0 -5 39 -8 88 -7 52 1 93 -3 101 -10 11 -8 13 -8 8 1
-6 9 3 12 30 10 21 -1 44 2 52 7 8 6 12 5 8 0 -7 -11 123 -11 141 0 7 4 12 4
11 -1 -4 -22 3 -25 17 -7 8 10 13 15 11 9 -3 -6 21 -10 63 -10 38 -1 66 3 63
8 -3 5 3 5 13 0 11 -4 67 -8 127 -7 70 0 107 -3 107 -10 0 -7 3 -7 8 0 8 13
119 14 138 2 6 -4 14 -4 18 0 12 12 130 11 145 -2 11 -8 13 -8 8 1 -6 9 3 12
30 10 21 -1 44 2 52 7 8 6 12 5 8 0 -7 -11 123 -11 141 0 7 4 12 4 11 -1 -4
-22 3 -25 17 -7 8 10 13 15 11 9 -3 -6 21 -10 63 -10 38 -1 66 3 63 8 -3 5 3
5 13 0 11 -4 67 -8 127 -7 70 0 107 -3 107 -10 0 -7 3 -7 8 0 8 13 119 14 138
2 6 -4 14 -4 18 0 12 12 130 11 145 -2 11 -8 13 -8 8 1 -6 9 3 12 30 10 21 -1
44 2 52 7 8 6 12 5 8 0 -7 -11 123 -11 141 0 7 4 12 4 11 -1 -4 -22 3 -25 17
-7 8 10 13 15 11 9 -3 -6 21 -10 63 -10 38 -1 66 3 63 8 -3 5 3 5 13 0 24 -11
135 -10 153 2 8 5 12 4 8 -1 -3 -5 25 -9 64 -9 38 0 69 3 69 8 0 4 5 7 11 7 5
0 8 -4 5 -9 -8 -13 16 -20 34 -11 8 4 38 7 65 6 28 -2 56 2 64 8 9 6 12 7 9 1
-4 -6 19 -10 63 -10 38 0 69 3 69 8 0 4 5 7 11 7 5 0 8 -4 5 -9 -8 -13 16 -20
34 -11 8 4 38 7 65 6 28 -2 56 2 64 8 9 6 12 7 9 1 -4 -6 19 -10 63 -10 38 0
69 3 69 8 0 4 5 7 11 7 5 0 8 -4 5 -9 -8 -13 16 -20 34 -11 8 4 38 7 65 6 28
-2 56 2 64 8 9 6 12 7 9 1 -4 -6 19 -10 63 -10 38 0 69 3 69 8 0 4 5 7 11 7 5
0 7 -5 4 -10 -6 -10 11 -15 30 -9 30 9 215 4 215 -5 0 -7 3 -7 8 0 8 13 119
14 138 2 6 -4 14 -4 18 0 12 12 130 11 145 -2 11 -8 13 -8 8 1 -6 9 3 12 30
10 21 -1 44 2 52 7 8 5 12 5 8 0 -3 -5 37 -9 94 -9 54 0 99 3 99 8 0 4 5 7 11
7 5 0 8 -4 4 -9 -3 -5 -1 -12 5 -16 5 -3 10 2 10 12 0 10 3 14 8 8 8 -12 192
-12 210 -1 6 3 13 2 16 -2 6 -11 36 -9 55 3 10 5 12 4 7 -3 -10 -16 7 -15 23
1 11 10 13 10 7 0 -9 -17 6 -17 23 -1 11 10 13 10 7 1 -9 -16 10 -17 19 -3 4
6 12 7 18 3 15 -11 38 -10 56 1 10 6 12 5 7 -2 -10 -16 7 -15 23 1 11 10 13
10 7 0 -9 -17 6 -17 23 0 8 6 11 7 8 1 -4 -8 15 -10 63 -9 47 2 70 -1 70 -9 0
-8 2 -8 8 0 8 13 119 14 138 2 6 -4 14 -4 18 0 12 12 130 11 145 -2 11 -8 13
-8 8 1 -6 9 3 12 30 10 21 -1 44 2 52 7 8 5 12 5 8 0 -3 -5 37 -9 94 -9 54 0
99 3 99 8 0 4 5 7 11 7 5 0 8 -4 4 -9 -3 -5 -1 -12 5 -16 5 -3 10 2 10 12 0
10 3 14 8 8 8 -12 192 -12 210 -1 6 3 13 2 16 -2 6 -11 36 -9 55 3 10 5 12 4
7 -3 -10 -16 7 -15 23 1 11 9 13 9 7 0 -9 -17 6 -17 23 0 11 10 13 10 7 0 -9
-16 10 -17 19 -3 4 6 12 7 18 3 15 -11 38 -10 56 1 10 6 12 5 7 -2 -10 -16 7
-15 23 1 11 9 13 9 7 0 -4 -7 -3 -13 1 -13 5 0 15 6 22 13 8 6 11 7 8 1 -4 -8
15 -10 63 -9 47 2 70 -1 70 -9 0 -8 2 -8 8 0 8 13 119 14 138 2 6 -4 14 -4 18
0 12 12 130 11 145 -2 11 -8 13 -8 8 1 -6 9 3 12 30 10 21 -1 44 2 52 7 8 5
12 5 8 0 -3 -5 37 -9 94 -9 54 0 99 3 99 8 0 4 5 7 11 7 5 0 8 -4 4 -9 -3 -5
-1 -12 5 -16 5 -3 10 2 10 12 0 10 3 14 8 8 8 -12 192 -12 210 -1 6 3 13 2 16
-2 6 -11 36 -9 55 3 10 5 12 4 7 -3 -10 -16 7 -15 23 1 11 10 13 10 7 0 -9
-17 6 -17 23 -1 11 10 13 10 7 1 -9 -16 10 -17 19 -3 4 6 12 7 18 3 15 -11 38
-10 56 1 10 6 12 5 7 -2 -10 -16 7 -15 23 0 11 10 13 10 7 1 -4 -7 -3 -13 1
-13 5 0 15 6 22 13 8 6 11 7 8 1 -4 -8 15 -10 63 -9 47 2 70 -1 70 -9 0 -8 2
-8 8 0 8 13 119 14 138 2 6 -4 14 -4 18 0 12 12 130 11 145 -2 11 -8 13 -8 8
1 -6 9 3 12 30 10 21 -1 44 2 52 7 9 6 12 5 8 0 -6 -11 144 -11 161 0 6 3 14
2 17 -4 5 -8 11 -7 21 1 9 7 14 8 13 3 -4 -23 2 -26 17 -8 8 10 13 14 10 9 -3
-7 22 -11 70 -10 41 0 74 3 74 8 0 4 24 6 54 5 30 -2 52 0 50 4 -5 7 11 10 32
7 4 0 10 4 14 11 4 6 17 12 28 13 12 1 22 6 22 12 0 5 5 3 10 -5 7 -12 10 -11
17 5 4 11 16 21 26 21 9 1 24 2 32 3 8 0 15 8 15 17 0 8 4 13 9 10 4 -3 19 3
31 14 13 11 27 21 32 21 4 1 12 2 17 3 5 0 13 5 18 10 5 5 2 6 -7 2 -8 -4 -6
-1 4 6 10 7 26 21 35 31 8 9 21 17 29 17 7 0 11 3 9 8 -6 9 19 33 27 25 6 -6
10 12 7 29 0 5 2 7 7 6 11 -4 52 35 46 44 -3 4 2 8 10 8 14 0 20 12 17 33 0 4
6 7 14 7 8 0 12 6 9 14 -3 8 5 21 18 30 12 9 19 16 14 16 -5 0 -3 7 4 15 7 8
10 21 6 30 -3 8 0 14 6 12 7 -1 12 5 13 13 0 8 5 15 12 15 6 0 15 3 19 8 4 4
2 7 -4 7 -13 0 -6 44 8 48 6 2 8 7 5 12 -3 5 2 16 11 24 8 9 12 16 7 16 -4 0
-8 14 -8 30 0 17 3 30 7 30 5 0 7 6 5 13 -1 6 4 11 11 9 8 -1 11 2 7 9 -10 15
-12 219 -3 219 4 0 4 10 0 23 -8 23 -7 79 1 102 3 7 3 15 0 18 -10 10 -8 177
2 181 6 3 5 5 -1 5 -11 1 -10 49 0 78 3 6 2 14 -1 17 -8 8 -9 216 -1 216 4 0
4 10 0 23 -8 23 -7 79 1 102 3 7 3 15 0 18 -8 8 -9 657 -1 657 4 0 5 7 2 15
-10 24 -10 225 -1 225 5 0 5 5 2 10 -11 18 -11 550 0 554 6 3 5 5 -1 5 -11 1
-10 49 0 78 3 6 2 14 -1 17 -8 8 -9 216 -1 216 4 0 4 10 0 23 -8 23 -7 79 1
102 3 7 3 15 0 18 -8 8 -9 657 -1 657 4 0 5 7 2 15 -10 24 -10 225 -1 225 5 0
5 5 2 10 -11 18 -11 550 0 554 6 3 5 5 -1 5 -11 1 -10 49 0 78 3 6 2 14 -1 17
-8 8 -9 216 -1 216 4 0 4 10 0 23 -8 23 -7 79 1 102 3 7 3 15 0 18 -7 8 -7
447 1 454 10 10 77 10 83 0 4 -6 1 -7 -7 -2 -9 5 -11 4 -6 -3 4 -7 14 -12 22
-12 8 0 14 -6 14 -12 0 -9 4 -8 10 2 6 10 10 11 10 3 0 -7 7 -13 16 -13 8 0
12 -5 9 -10 -4 -7 3 -9 19 -6 14 3 28 0 32 -5 3 -5 10 -7 15 -4 5 4 12 0 15
-8 3 -8 13 -14 22 -12 9 1 20 -3 24 -9 6 -8 8 -8 8 1 0 12 37 6 58 -10 7 -5
12 -6 12 0 0 5 24 6 56 3 30 -3 57 -3 59 1 3 3 15 4 29 2 13 -3 27 0 30 6 5 8
13 8 27 1 11 -6 19 -7 19 -1 0 5 10 7 22 3 14 -3 19 -1 14 6 -5 8 -2 10 8 6 9
-4 16 -1 16 6 0 7 7 10 15 6 8 -3 15 -1 15 4 0 5 11 7 24 4 15 -2 26 1 29 10
3 8 19 17 36 21 17 4 29 11 25 16 -5 8 17 14 39 10 5 -1 6 3 2 9 -3 5 1 10 10
10 8 0 18 7 21 15 4 8 10 12 15 9 5 -3 9 2 9 10 0 9 3 15 8 15 26 -4 41 3 36
16 -4 8 -1 15 5 15 6 0 30 19 53 42 24 23 37 38 31 34 -7 -4 -13 -2 -13 3 0 6
7 11 15 11 8 0 15 9 15 20 0 11 6 19 13 18 6 -2 11 3 9 10 -1 6 2 12 8 12 5 0
7 6 4 14 -3 8 3 16 15 19 14 3 19 10 15 21 -3 9 -1 16 6 16 6 0 9 4 5 9 -3 5
2 16 11 25 8 9 13 20 9 25 -3 5 0 13 6 16 5 4 8 13 5 21 -3 9 1 14 12 15 11 0
13 2 4 6 -10 4 -9 9 4 24 11 12 13 19 5 19 -7 0 -9 5 -4 13 4 6 6 22 4 35 -1
12 2 22 8 22 6 0 11 5 11 11 0 5 -4 8 -8 5 -5 -3 -9 1 -9 9 0 8 4 12 8 9 4 -2
7 5 6 16 -1 11 -6 20 -12 20 -5 0 -4 4 4 9 13 8 13 12 0 27 -8 10 -9 15 -3 11
8 -4 11 3 10 23 0 17 -5 30 -10 30 -4 0 -6 14 -4 30 3 17 0 30 -6 30 -6 0 -6
4 2 12 12 12 -3 52 -17 44 -5 -3 -7 6 -5 19 1 14 -2 25 -7 25 -5 0 -9 9 -9 19
0 29 -11 52 -21 45 -6 -3 -7 6 -4 23 5 21 4 24 -4 13 -9 -13 -11 -13 -11 3 0
9 -5 17 -11 17 -5 0 -8 4 -4 9 3 5 1 12 -5 16 -6 4 -8 11 -5 16 4 5 -1 9 -9 9
-8 0 -18 5 -22 12 -5 7 -2 9 7 4 8 -4 6 -1 -3 7 -10 8 -15 17 -11 20 6 7 -12
11 -30 8 -5 -1 -6 3 -3 8 4 5 0 16 -8 24 -8 8 -12 17 -9 21 4 3 1 6 -6 6 -12
0 -25 9 -62 43 -10 9 -25 17 -31 17 -9 0 -8 4 2 10 10 6 11 10 3 10 -7 0 -14
-1 -16 -2 -1 -2 -13 7 -27 20 -13 12 -30 20 -37 18 -7 -3 -13 -1 -13 5 0 6 -4
7 -10 4 -5 -3 -10 1 -10 11 0 11 -6 15 -20 11 -11 -3 -18 -1 -14 4 3 5 0 9 -6
9 -6 0 -9 4 -6 8 2 4 -5 9 -17 9 -12 1 -27 9 -33 17 -6 9 -14 13 -17 10 -9 -9
-48 22 -39 31 4 4 -1 5 -10 2 -10 -4 -18 -2 -18 5 0 7 -5 6 -15 -2 -12 -10
-14 -8 -10 9 2 11 1 20 -3 20 -18 -3 -31 3 -52 21 -13 11 -28 19 -34 17 -6 -2
-19 5 -29 16 -9 11 -20 17 -24 14 -3 -4 -16 5 -28 19 -15 18 -25 22 -30 15 -5
-8 -12 -5 -25 9 -10 12 -27 22 -38 23 -12 0 -19 4 -16 8 2 4 -11 13 -29 20
-17 7 -37 20 -43 28 -6 8 -16 11 -22 7 -7 -4 -12 -3 -12 3 0 6 -13 17 -30 26
-16 9 -30 13 -30 10 0 -3 -6 0 -14 7 -8 7 -12 16 -10 19 2 4 -6 6 -19 5 -14
-1 -21 4 -19 13 2 8 -3 11 -12 8 -8 -3 -17 1 -21 11 -5 14 -7 14 -15 2 -8 -13
-10 -12 -10 3 0 9 -3 16 -7 15 -12 -2 -47 14 -55 26 -4 6 -14 11 -22 11 -9 0
-23 9 -31 20 -9 11 -13 13 -9 6 4 -9 -6 -6 -24 8 -18 12 -32 28 -32 34 0 7 -4
6 -10 -3 -6 -10 -10 -11 -10 -2 0 6 -7 12 -16 12 -8 0 -12 4 -9 10 3 5 0 7 -8
4 -8 -3 -17 2 -20 10 -4 9 -16 16 -27 16 -14 0 -19 4 -14 12 5 8 0 9 -15 5
-14 -3 -24 0 -28 8 -2 8 -38 31 -79 51 -41 20 -74 40 -74 44 0 11 -57 30 -66
22 -4 -4 -4 -1 0 6 4 7 1 12 -8 12 -9 0 -16 5 -16 10 0 6 -7 10 -15 10 -8 0
-15 6 -15 13 0 9 -2 9 -9 -1 -6 -10 -10 -8 -14 9 -5 20 -8 21 -23 8 -10 -8
-15 -9 -12 -4 3 6 0 16 -8 23 -8 7 -14 9 -14 5 0 -4 -5 0 -11 10 -5 9 -19 17
-29 17 -11 0 -20 5 -20 10 0 6 -7 10 -16 10 -9 0 -12 -5 -8 -12 4 -8 3 -10 -2
-5 -5 5 -9 14 -9 20 0 7 -10 13 -22 15 -13 2 -23 8 -23 13 0 6 -4 7 -10 4 -5
-3 -10 1 -10 9 0 10 -8 15 -22 13 -16 -1 -23 3 -22 14 1 10 -5 16 -15 14 -18
-2 -52 16 -46 25 2 3 -6 7 -18 7 -12 1 -23 7 -25 13 -2 5 -8 8 -13 4 -5 -3
-12 2 -15 11 -4 10 -13 13 -25 10 -11 -4 -19 -3 -18 2 1 4 1 15 0 23 -1 13 -2
13 -11 0 -8 -12 -10 -12 -10 -1 0 8 -3 12 -6 8 -3 -3 -15 3 -27 14 -11 10 -27
19 -34 19 -7 0 -13 5 -13 10 0 6 -7 10 -15 10 -23 0 -65 22 -59 31 3 5 -4 9
-15 9 -12 0 -26 9 -33 19 -10 16 -15 18 -27 8 -12 -9 -13 -9 -7 1 4 7 2 12 -8
12 -8 0 -16 4 -18 9 -2 5 -10 11 -18 13 -8 2 -23 12 -33 23 -10 11 -16 14 -12
5 4 -9 1 -8 -8 3 -11 14 -16 15 -20 5 -4 -11 -6 -11 -6 0 -1 7 -6 10 -11 7 -5
-3 -10 1 -10 11 0 12 -6 15 -21 11 -12 -3 -18 -3 -15 0 11 12 -59 57 -74 48
-6 -4 -10 1 -10 9 0 9 -3 15 -7 15 -20 -3 -34 2 -28 11 3 6 -3 11 -14 11 -36
2 -40 4 -53 19 -11 12 -10 12 7 0 19 -14 19 -14 6 3 -8 10 -20 16 -28 13 -7
-3 -22 4 -32 15 -11 12 -23 19 -28 16 -5 -3 -16 3 -23 14 -8 10 -25 19 -38 19
-13 0 -21 4 -17 9 6 11 -12 25 -38 26 -10 1 -22 7 -26 13 -4 6 -17 13 -29 15
-12 2 -25 7 -29 12 -5 4 -1 5 7 1 8 -4 6 0 -4 8 -11 9 -26 16 -33 16 -7 0 -13
5 -13 10 0 6 -9 10 -21 10 -13 0 -18 4 -13 12 4 7 3 8 -5 4 -7 -5 -19 0 -29
12 -9 10 -23 17 -30 14 -7 -2 -21 5 -31 17 -10 11 -21 18 -25 14 -3 -3 -6 -1
-6 6 0 7 -4 10 -9 7 -5 -4 -11 -1 -13 4 -2 6 -13 12 -26 13 -14 1 -21 6 -17
15 2 7 1 10 -4 7 -5 -3 -13 0 -16 6 -4 5 -14 8 -22 5 -8 -3 -12 -2 -9 3 6 9
-22 26 -36 23 -5 -1 -8 2 -8 8 0 5 -8 7 -17 3 -10 -3 -15 -3 -11 1 10 12 -14
34 -32 29 -9 -3 -23 4 -31 14 -13 17 -13 17 6 3 19 -14 19 -14 6 3 -8 10 -20
16 -27 13 -7 -3 -22 4 -34 14 -13 11 -26 18 -29 15 -4 -2 -13 5 -21 15 -8 10
-17 17 -22 14 -4 -3 -8 1 -8 8 0 9 -3 9 -10 -2 -7 -11 -10 -11 -10 -2 0 7 -4
10 -10 7 -5 -3 -10 0 -10 8 0 8 -11 18 -25 21 -14 4 -23 11 -20 17 4 5 3 8 -2
7 -16 -4 -83 24 -78 33 4 5 -3 9 -14 9 -10 0 -21 5 -23 10 -2 6 -13 12 -25 13
-12 0 -19 5 -17 9 3 4 -2 8 -10 8 -9 0 -16 5 -16 10 0 6 -7 10 -15 10 -8 0
-15 6 -15 13 0 8 -4 7 -10 -3 -8 -12 -10 -11 -10 8 0 20 -2 21 -21 11 -15 -8
-19 -8 -15 0 4 6 0 11 -9 11 -9 0 -13 5 -10 10 3 6 -2 10 -13 10 -10 0 -27 8
-38 18 -10 10 -27 16 -38 14 -11 -3 -16 0 -12 7 4 6 2 11 -4 11 -6 0 -9 4 -5
9 3 6 -4 8 -15 6 -11 -2 -20 0 -20 4 0 5 -18 16 -40 25 -22 9 -40 21 -40 27 0
5 -4 7 -10 4 -5 -3 -10 -1 -10 4 0 6 -9 11 -19 11 -11 0 -23 5 -27 12 -5 7 -2
8 7 3 8 -5 11 -4 6 1 -4 4 -18 9 -30 9 -12 0 -22 6 -22 15 -1 8 -7 14 -14 12
-7 -1 -19 2 -25 8 -7 5 -16 6 -20 2 -4 -4 -6 0 -4 8 2 10 -3 14 -14 12 -10 -2
-18 2 -18 9 0 6 -7 9 -15 5 -8 -3 -14 0 -12 6 1 7 -7 14 -18 16 -11 2 -25 11
-31 20 -6 8 -16 12 -22 8 -7 -4 -12 -2 -12 3 0 6 -7 11 -15 11 -8 0 -15 4 -15
8 0 5 -10 14 -22 20 -13 7 -34 20 -48 29 -13 10 -21 12 -17 6 6 -9 3 -11 -7
-7 -9 3 -13 10 -10 15 3 5 -2 9 -11 9 -9 0 -25 9 -37 20 -12 11 -30 20 -41 20
-11 0 -21 9 -24 21 -4 16 -8 17 -14 7 -7 -10 -9 -11 -9 0 0 7 -4 11 -9 7 -6
-3 -15 4 -21 15 -6 11 -16 18 -21 14 -6 -3 -22 5 -37 17 -14 13 -22 17 -17 9
8 -13 7 -13 -5 0 -9 9 -22 14 -29 12 -8 -3 -11 0 -7 7 7 11 -5 15 -33 12 -7
-2 -10 2 -6 8 3 6 -1 11 -10 11 -10 0 -13 5 -9 12 5 8 0 9 -16 5 -16 -4 -23
-1 -27 14 -3 10 -9 16 -14 13 -5 -3 -9 -1 -9 5 0 6 -6 8 -14 5 -7 -3 -20 1
-28 8 -35 33 -61 52 -54 40 7 -11 4 -12 -13 -3 -11 7 -21 16 -21 22 0 6 -5 7
-10 4 -6 -3 -13 0 -16 9 -3 8 -11 13 -19 10 -7 -3 -15 2 -19 11 -3 9 -10 13
-16 10 -5 -3 -10 -1 -10 4 0 6 -9 11 -20 11 -11 0 -20 5 -20 10 0 6 -7 10 -15
10 -8 0 -15 5 -15 10 0 6 -9 10 -20 10 -11 0 -20 7 -20 15 0 9 -6 12 -15 9 -8
-4 -15 -1 -15 6 0 6 -5 8 -10 5 -6 -3 -13 1 -16 9 -3 9 -14 16 -24 16 -9 0
-30 10 -46 23 -16 12 -31 21 -34 20 -3 0 -4 3 -3 8 3 9 -18 13 -46 10 -7 -2
-10 2 -7 7 3 6 -8 15 -24 21 -17 5 -30 15 -30 20 0 6 -12 11 -26 11 -14 0 -23
4 -19 10 3 6 -1 10 -10 10 -9 0 -14 4 -11 9 3 5 -3 11 -14 14 -13 3 -18 1 -13
-6 4 -7 -6 -2 -21 11 -16 12 -33 19 -39 15 -5 -3 -7 -1 -3 5 4 6 -8 16 -28 23
-19 7 -33 16 -31 20 3 4 -11 10 -30 13 -22 5 -33 11 -29 18 4 7 2 8 -5 4 -6
-4 -18 -3 -26 4 -7 6 -27 12 -44 12 -17 1 -31 5 -31 10 0 4 -8 8 -18 8 -10 0
-24 6 -31 13 -11 10 -12 9 -6 -3 7 -12 6 -13 -6 -4 -17 12 -88 12 -108 0 -10
-6 -12 -5 -7 3 8 13 -29 12 -50 -1 -6 -4 -14 -4 -18 -1 -11 12 -46 13 -46 2 0
-5 -6 -9 -12 -8 -7 1 -26 -3 -41 -9 -16 -7 -39 -10 -53 -8 -14 3 -23 0 -21 -7
1 -7 -4 -11 -10 -9 -7 1 -13 -2 -13 -6 0 -4 -12 -9 -27 -10 -16 -1 -33 -9 -39
-17 -6 -8 -19 -15 -28 -15 -9 0 -19 -7 -22 -15 -4 -8 -11 -12 -16 -9 -6 4 -20
-4 -30 -17 -11 -13 -17 -17 -13 -9 4 8 -1 6 -10 -5 -9 -11 -18 -18 -20 -15 -2
3 -12 -2 -22 -10 -10 -8 -27 -16 -38 -18 -11 -2 -26 -12 -34 -23 -15 -21 -36
-27 -26 -6 4 6 0 4 -9 -7 -8 -10 -20 -15 -27 -10 -8 4 -10 3 -5 -4 4 -7 1 -12
-8 -12 -9 0 -16 -7 -16 -16 0 -8 -4 -13 -9 -10 -14 9 -42 -5 -35 -16 4 -6 -2
-7 -16 -3 -18 6 -22 4 -17 -8 4 -11 0 -14 -18 -13 -16 2 -25 -3 -29 -16 -2
-11 -9 -17 -15 -14 -6 4 -19 -2 -31 -14 -22 -22 -35 -27 -24 -7 5 8 3 8 -9 -2
-9 -7 -14 -17 -11 -22 3 -5 -3 -6 -12 -2 -13 5 -15 3 -9 -7 5 -8 4 -11 -3 -6
-13 8 -63 -14 -57 -24 3 -4 -9 -10 -26 -14 -17 -3 -28 -10 -24 -16 5 -9 -15
-15 -38 -11 -5 1 -5 -4 -1 -10 5 -9 2 -10 -10 -6 -9 4 -15 3 -12 -2 7 -11 -22
-23 -35 -15 -5 3 -9 -2 -9 -11 0 -10 -6 -15 -13 -12 -15 5 -39 -18 -29 -29 4
-4 1 -4 -7 1 -7 4 -16 3 -20 -3 -3 -5 -15 -12 -26 -14 -11 -1 -25 -12 -32 -23
-9 -14 -12 -16 -13 -5 0 9 -3 11 -8 5 -15 -21 -56 -50 -48 -35 4 8 0 6 -8 -4
-9 -11 -16 -16 -16 -11 0 5 -7 0 -16 -11 -8 -10 -12 -13 -8 -5 5 10 3 12 -7 5
-21 -13 -51 -16 -44 -4 3 5 2 10 -2 10 -5 0 -9 11 -9 25 0 14 5 25 11 25 6 0
7 3 0 8 -5 4 -10 30 -10 57 0 28 5 53 10 57 7 5 6 8 0 8 -14 0 -13 70 0 70 6
0 4 4 -4 9 -10 7 -14 31 -14 85 0 42 -4 76 -8 76 -4 0 -5 9 -2 20 3 12 0 20
-6 20 -7 0 -9 5 -6 10 4 6 2 16 -3 23 -12 15 -12 47 0 47 5 0 2 7 -6 16 -9 8
-16 22 -16 30 0 8 -4 14 -10 14 -5 0 -7 7 -4 15 4 9 0 15 -7 15 -9 0 -10 3 -4
8 13 9 18 35 5 27 -5 -3 -10 3 -10 14 0 12 -5 21 -10 21 -6 0 -9 3 -9 8 4 26
-3 62 -11 57 -5 -3 -10 3 -10 15 0 13 -4 19 -11 14 -8 -4 -8 0 0 15 8 13 8 21
2 21 -6 0 -20 19 -32 42 -20 39 -20 42 -3 29 10 -7 7 -2 -9 12 -15 15 -27 29
-27 32 2 12 -25 63 -31 59 -4 -2 -6 4 -5 14 0 9 -4 16 -11 15 -7 -2 -10 4 -7
12 4 8 1 15 -5 15 -6 0 -10 3 -10 8 3 20 -3 32 -17 32 -8 0 -12 4 -9 10 3 5
-5 21 -18 34 -14 14 -22 27 -19 30 3 3 -2 6 -11 6 -11 0 -15 7 -12 20 2 11 0
18 -6 15 -5 -4 -12 1 -15 9 -3 9 -9 14 -13 11 -5 -2 -17 12 -27 33 -11 20 -24
36 -28 34 -5 -2 -16 8 -26 23 -9 14 -27 33 -39 41 -12 9 -18 21 -15 27 4 7 4
9 -1 5 -4 -4 -18 6 -32 22 -13 16 -30 29 -36 27 -7 -1 -11 4 -10 11 2 6 -1 12
-7 12 -5 0 -19 10 -32 23 -13 13 -31 26 -41 30 -9 3 -17 11 -17 17 0 6 -4 8
-10 5 -5 -3 -10 -1 -10 4 0 6 -7 11 -16 11 -8 0 -12 5 -9 10 3 6 -1 10 -10 10
-9 0 -13 4 -10 10 3 5 0 7 -8 4 -8 -3 -21 2 -30 10 -9 9 -22 16 -29 16 -10 0
-9 3 2 11 12 9 11 10 -7 6 -13 -3 -23 -2 -23 3 0 4 -22 17 -49 29 -27 11 -51
25 -53 31 -1 5 -15 11 -30 12 -15 1 -25 5 -22 9 7 12 -19 24 -43 20 -13 -1
-23 3 -23 10 0 7 -3 10 -6 6 -4 -3 -14 1 -22 10 -11 10 -17 12 -20 4 -2 -7 -9
-6 -19 4 -8 8 -19 13 -24 10 -5 -4 -9 -1 -9 5 0 6 -4 8 -10 5 -5 -3 -10 -1
-10 5 0 6 -10 10 -22 9 -13 -1 -36 3 -51 10 -16 6 -33 9 -38 5 -5 -3 -9 2 -9
11 0 10 -5 13 -12 9 -6 -4 -25 -8 -41 -10 -16 -1 -25 1 -19 5 6 3 0 11 -14 18
-18 8 -24 8 -24 0 0 -7 -6 -4 -13 5 -9 11 -18 14 -27 8 -8 -5 -19 -6 -25 -2
-16 11 -35 11 -35 1 0 -6 -8 -5 -20 1 -15 8 -20 8 -20 -2 0 -9 -3 -9 -10 2 -9
13 -10 13 -10 0 -1 -12 -3 -11 -11 3 -8 14 -14 15 -24 7 -7 -6 -16 -7 -19 -2
-6 11 -36 9 -55 -3 -10 -5 -12 -4 -7 3 10 16 -7 15 -23 0 -11 -10 -13 -10 -7
0 4 6 3 12 -1 12 -5 0 -15 -6 -22 -12 -11 -11 -12 -10 -6 1 6 11 3 13 -13 9
-12 -3 -23 -1 -26 6 -3 8 -5 8 -5 -1z m1250 -480 c13 -16 12 -17 -3 -4 -10 7
-18 15 -18 17 0 8 8 3 21 -13z"/>
</g>
</svg>
